PathFileType	4	(X/Y/Z)	C:/Users/opensim2020/Desktop/walking_exp_matlab/subject02_walking08_straight_04.trc																																																																																																																									
DataRate	CameraRate	NumFrames	NumMarkers	Units	OrigDataRate	OrigDataStartFrame	OrigNumFrames																																																																																																																					
100	100	8	41	mm	100	3047	241																																																																																																																					
Frame#	Time	LFHD			RFHD			LBHD			RBHD			C7			T10			CLAV			STRN			RBAK			LSHO			LUPA			LELB			LFRM			LWRA			LWRB			LFIN			RSHO			RUPA			RELB			RFRM			RWRA			RWRB			RFIN			LASI			RASI			LPSI			RPSI			LTHI			LKNE			LTIB			LANK			LHEE			LTOE			RTHI			RKNE			RTIB			RANK			RHEE			RTOE			*39			*40		
		X1	Y1	Z1	X2	Y2	Z2	X3	Y3	Z3	X4	Y4	Z4	X5	Y5	Z5	X6	Y6	Z6	X7	Y7	Z7	X8	Y8	Z8	X9	Y9	Z9	X10	Y10	Z10	X11	Y11	Z11	X12	Y12	Z12	X13	Y13	Z13	X14	Y14	Z14	X15	Y15	Z15	X16	Y16	Z16	X17	Y17	Z17	X18	Y18	Z18	X19	Y19	Z19	X20	Y20	Z20	X21	Y21	Z21	X22	Y22	Z22	X23	Y23	Z23	X24	Y24	Z24	X25	Y25	Z25	X26	Y26	Z26	X27	Y27	Z27	X28	Y28	Z28	X29	Y29	Z29	X30	Y30	Z30	X31	Y31	Z31	X32	Y32	Z32	X33	Y33	Z33	X34	Y34	Z34	X35	Y35	Z35	X36	Y36	Z36	X37	Y37	Z37	X38	Y38	Z38	X39	Y39	Z39	X40	Y40	Z40	X41	Y41	Z41
																																																																																																																												
61	0.6	-434.74673	1740.56543	-1469.27649	-452.00952	1718.71729	-1327.50488	-569.48175	1678.21509	-1493.48486	-599.36499	1656.70984	-1354.37378	-641.7818	1539.67749	-1409.88159	-710.40558	1265.38708	-1389.18066	-508.88522	1460.26563	-1433.60156	-466.27124	1287.24841	-1417.85449	-701.302	1371.5575	-1329.00574	-598.84161	1500.89429	-1593.57666	-668.51569	1309.07068	-1659.38306	-705.4259	1172.61792	-1658.10657	-734.6178	1044.08423	-1668.80688	-710.39252	906.70557	-1644.33252	-758.6665	922.32391	-1669.36206	-759.66901	854.11389	-1669.85669	-544.54932	1509.7998	-1233.48022	-542.55389	1320.59351	-1137.97888	-507.80685	1176.86243	-1120.06873	-456.50211	1067.92224	-1105.59607	-389.52979	952.50354	-1131.06628	-429.39584	941.57898	-1091.82874	-379.79108	888.25269	-1093.86462	-488.9837	999.1748	-1530.78259	-485.7197	979.13489	-1274.41614	-696.92181	1046.00549	-1446.6593	-697.59552	1045.05164	-1331.33533	-490.41211	700.28284	-1604.46436	-462.19308	507.47009	-1580.99377	-539.76501	332.28903	-1574.10461	-560.2254	109.1618	-1549.81897	-585.60431	84.76307	-1491.4491	-422.21661	50.1349	-1588.89148	-576.63214	672.22345	-1230.38098	-594.44849	464.38495	-1282.12048	-649.6842	283.62216	-1283.99097	-682.34222	94.84766	-1333.32654	-720.67401	43.62259	-1390.9707	-533.38947	38.69042	-1317.65344	-539.4657	1813.25305	-1388.14246	-2845.15137	1034.05811	3360.26392
62	0.61	-425.91663	1739.32495	-1470.0907	-443.25015	1718.18884	-1328.71497	-561.06079	1677.44373	-1494.4679	-590.68921	1656.4093	-1355.01721	-633.46759	1539.18396	-1410.1333	-702.33777	1264.87158	-1389.51257	-500.59586	1459.56433	-1433.87903	-458.2319	1286.53992	-1417.64648	-693.12689	1371.2229	-1328.9552	-591.00262	1499.89722	-1593.72339	-662.14215	1308.63599	-1658.73157	-700.27716	1172.52905	-1657.32654	-730.65839	1044.3407	-1668.1084	-706.58838	906.34473	-1645.56287	-755.7674	922.92126	-1669.13257	-757.25146	854.724	-1670.31213	-536.18573	1509.90417	-1234.052	-533.06396	1320.71375	-1138.0968	-496.20724	1177.45581	-1119.82825	-443.53754	1069.2168	-1105.84204	-374.29037	955.19757	-1131.65259	-413.99603	943.27209	-1092.40466	-363.49841	890.94458	-1094.65051	-480.06281	998.6908	-1530.88477	-478.2067	978.52783	-1273.98145	-688.60901	1045.22095	-1447.2738	-689.90955	1044.32385	-1332.13452	-480.29596	700.17859	-1604.328	-451.63715	506.46912	-1580.19543	-520.63837	327.17899	-1575.33606	-530.03186	102.95024	-1552.35706	-554.74066	77.53917	-1494.74646	-388.73468	50.4359	-1590.18616	-571.55286	671.85168	-1230.75781	-591.7276	464.14175	-1282.59583	-648.36029	283.81146	-1284.18384	-682.19598	95.18571	-1333.58521	-720.58923	43.8652	-1391.24597	-533.35846	38.57198	-1317.50916	-530.37299	1812.55103	-1389.20972	-2845.27124	1034.16113	3360.34766
63	0.62	-417.31924	1738.20239	-1471.51843	-434.27081	1717.44031	-1329.63513	-552.39758	1676.34314	-1494.9989	-582.02747	1655.94275	-1355.75146	-625.10284	1538.48206	-1410.45496	-694.27075	1264.20789	-1389.90479	-492.19046	1458.60571	-1433.98083	-449.99896	1285.6936	-1417.59338	-684.99274	1370.66528	-1329.00818	-583.16809	1498.91492	-1593.97693	-655.34857	1307.84717	-1658.0946	-694.91742	1172.35754	-1656.60999	-726.4635	1044.55786	-1667.8136	-702.83447	906.45654	-1647.13281	-752.29211	923.06793	-1668.79407	-754.37976	855.19165	-1670.88196	-527.81763	1509.66333	-1234.47192	-523.63257	1320.6698	-1138.51794	-485.11368	1177.86755	-1119.27515	-430.23306	1070.51416	-1106.28418	-359.39108	957.6886	-1132.2312	-398.7674	944.86572	-1093.19507	-347.21332	893.40985	-1095.45959	-471.13635	998.07343	-1531.07446	-470.64572	977.93573	-1273.7312	-680.27344	1044.1803	-1447.94958	-682.15955	1043.46802	-1333.01318	-470.44873	699.71527	-1604.17847	-441.25433	505.31766	-1579.53711	-501.61176	322.44037	-1576.40417	-500.14932	97.78086	-1555.00317	-524.11713	70.79517	-1497.4231	-355.72446	51.85881	-1591.60986	-566.57489	671.37	-1231.02625	-588.716	463.89774	-1282.82581	-646.84082	283.97653	-1284.46289	-681.81238	95.38454	-1333.7417	-720.39185	44.14959	-1391.46533	-533.35101	38.62683	-1317.40125	-521.41815	1811.85449	-1390.57959	-2845.80469	1034.16711	3357.09619
64	0.63	-408.54529	1736.85168	-1472.7085	-425.50427	1716.56531	-1330.73621	-543.98199	1675.29492	-1496.1698	-573.3678	1655.30798	-1356.48828	-616.69836	1537.64502	-1410.86401	-686.17657	1263.41882	-1390.25891	-483.9751	1457.7323	-1434.5752	-441.93408	1284.6814	-1417.66956	-676.43585	1369.87842	-1329.01514	-574.98767	1497.64758	-1594.0105	-648.83655	1307.34924	-1658.03845	-689.29315	1172.06836	-1656.10608	-721.94116	1044.54504	-1667.36963	-698.6875	906.20917	-1648.6626	-748.70032	923.50562	-1668.88794	-751.21887	855.57684	-1671.6134	-519.54712	1509.25867	-1235.0708	-513.14001	1320.63672	-1137.99097	-473.53049	1178.02075	-1119.55994	-417.54877	1071.41663	-1106.66406	-344.37674	959.81757	-1133.03809	-383.75034	946.30048	-1094.14526	-331.31683	896.0069	-1096.66516	-462.25769	997.36133	-1531.35657	-462.58594	977.5423	-1273.75134	-671.84937	1042.95862	-1448.70105	-674.36908	1042.495	-1333.98889	-461.02374	698.77301	-1604.03271	-430.88931	503.97272	-1579.09448	-482.69769	318.04401	-1577.18823	-470.79419	93.47779	-1557.67334	-494.1687	65.52389	-1500.5531	-323.91907	54.21953	-1593.34241	-561.31775	670.94177	-1231.41064	-585.53601	463.41431	-1283.08899	-645.31055	284.13147	-1284.67761	-681.49286	95.66908	-1333.94312	-720.24609	44.42976	-1391.72107	-533.30396	38.58789	-1317.26843	-512.50317	1811.05457	-1392.00977	NaN	NaN	NaN
65	0.64	-399.73666	1735.30139	-1473.67017	-416.75485	1715.75952	-1332.0448	-535.3797	1674.0072	-1496.98901	-564.7251	1654.60034	-1357.23914	-608.26746	1536.67688	-1411.37122	-678.02692	1262.59424	-1390.81702	-475.5575	1456.6239	-1435.02832	-433.55865	1283.37366	-1417.57983	-668.11292	1369.15686	-1329.27063	-567.01868	1496.46826	-1594.5719	-641.73309	1306.39282	-1657.63025	-683.35858	1171.64502	-1655.7793	-717.07953	1044.44226	-1667.22949	-694.19788	905.8183	-1650.4209	-744.71924	923.6438	-1669.03528	-747.64624	855.73682	-1672.48157	-510.97641	1508.62463	-1235.55591	-503.13882	1320.4259	-1138.13208	-462.41263	1178.05298	-1119.59546	-404.39432	1072.23767	-1107.16614	-329.84064	962.25427	-1134.13696	-368.93103	947.6377	-1095.24011	-315.55948	898.29608	-1097.97766	-453.23206	996.60248	-1531.60767	-455.2352	977.04407	-1273.63733	-663.37323	1041.58679	-1449.51318	-666.5614	1041.27954	-1334.91895	-451.94931	697.53516	-1604.07104	-420.54413	502.58032	-1578.90479	-464.21762	314.2648	-1578.23584	-442.08447	90.11279	-1560.11084	-464.09189	60.52284	-1502.78247	-293.07733	57.05682	-1594.93079	-556.02063	670.61505	-1231.83289	-582.0498	463.08795	-1283.37744	-643.58209	284.33978	-1284.94653	-681.12445	95.99914	-1334.21985	-720.05322	44.69946	-1392.2489	-533.23511	38.53948	-1317.15356	-503.59952	1810.13025	-1393.41455	NaN	NaN	NaN
66	0.65	-391.11047	1734.04602	-1475.302	-407.97842	1714.7489	-1333.224	-526.79517	1672.66833	-1498.00549	-556.03271	1653.69006	-1358.08716	-599.81824	1535.6499	-1411.97327	-669.87701	1261.57996	-1391.45398	-467.13736	1455.43591	-1435.60474	-425.48721	1282.36829	-1418.03259	-660.21655	1368.29993	-1330.00647	-558.77283	1495.04541	-1594.9375	-634.77924	1305.68994	-1657.82129	-677.20026	1171.19519	-1655.85559	-711.78766	1044.22485	-1667.36353	-689.37885	905.31458	-1652.25415	-740.14832	923.42554	-1669.18115	-743.67133	855.7926	-1673.50061	-502.58102	1507.92883	-1236.29089	-494.22934	1319.95313	-1139.01917	-451.43677	1177.88989	-1119.68701	-391.50864	1073.11511	-1108.01929	-314.81528	964.19122	-1135.17578	-354.34991	948.79865	-1096.41772	-300.1489	900.52631	-1099.38879	-444.07724	995.75549	-1531.86304	-447.24219	976.55872	-1273.72498	-654.73474	1040.07336	-1450.4021	-658.62268	1039.86633	-1336.01941	-443.33362	696.11438	-1604.20361	-410.34335	501.15216	-1578.8739	-446.25543	311.07629	-1579.76367	-414.10187	87.63605	-1562.48645	-435.17676	56.75862	-1505.41443	-263.32138	60.4875	-1596.25269	-550.68793	669.87347	-1232.20386	-578.57025	462.66791	-1283.72046	-641.77527	284.52396	-1285.27661	-680.73871	96.38377	-1334.51208	-719.80792	45.0704	-1392.44885	-533.15491	38.51897	-1317.08643	-494.64618	1808.98926	-1394.77148	NaN	NaN	NaN
67	0.66	-382.38852	1732.29016	-1476.38953	-399.23734	1713.58301	-1334.37793	-518.20117	1671.23633	-1499.01733	-547.55963	1652.73193	-1359.05591	-591.36261	1534.49878	-1412.67639	-661.64752	1260.42822	-1392.13123	-458.73975	1454.12683	-1436.18555	-417.19675	1281.08301	-1418.34998	-651.57635	1367.19592	-1330.23914	-550.58569	1493.74854	-1595.54517	-627.37244	1304.57275	-1657.8009	-670.57855	1170.50793	-1655.96997	-706.1217	1043.79382	-1667.64514	-684.22443	904.77496	-1654.35046	-735.37433	923.4035	-1670.04639	-739.33258	855.73035	-1674.67432	-494.18842	1506.91553	-1237.00256	-485.2421	1319.04614	-1139.38354	-440.78104	1177.4917	-1119.72131	-379.28348	1073.41028	-1108.69556	-301.48499	965.81421	-1137.0061	-339.93597	949.65356	-1097.88416	-284.91013	902.54413	-1100.99695	-434.84708	994.8667	-1532.09521	-439.27884	975.93713	-1273.81702	-646.08099	1038.41919	-1451.38501	-650.64563	1038.34521	-1337.21899	-434.81396	694.27466	-1604.36829	-400.29156	499.75146	-1579.06921	-428.37988	308.01401	-1581.23901	-386.91937	85.79024	-1564.72803	-407.39063	54.07982	-1508.021	-234.67249	64.27383	-1597.05188	-545.2027	669.29065	-1232.61243	-574.80756	462.09821	-1284.30627	-639.80859	284.73453	-1285.60303	-680.28571	96.75908	-1334.78723	-719.56573	45.52604	-1392.79053	-533.05878	38.49547	-1316.97546	-485.80713	1807.84094	-1396.19751	NaN	NaN	NaN
68	0.67	-373.53094	1730.5437	-1477.38379	-390.48489	1712.31677	-1335.54468	-509.49652	1669.69714	-1500.04102	-538.70282	1651.5542	-1360.02966	-582.8858	1533.29382	-1413.49207	-653.3537	1259.22021	-1392.99133	-450.31595	1452.73987	-1436.87354	-408.8389	1279.7323	-1418.74536	-643.63519	1366.20117	-1331.2666	-542.24518	1492.26404	-1596.18787	-619.98438	1303.62537	-1658.34302	-663.56055	1169.55493	-1656.19373	-700.02716	1043.33252	-1668.25745	-678.72943	903.90271	-1656.55933	-730.11719	923.1106	-1670.79358	-734.50653	855.49469	-1676.01978	-485.59943	1505.72717	-1237.59778	-475.04663	1318.26807	-1139.6123	-430.05615	1176.97083	-1120.06824	-366.77841	1073.6676	-1109.61584	-287.58942	967.30731	-1138.41443	-325.89703	950.43353	-1099.47937	-270.01706	904.42078	-1102.71619	-425.47192	993.95923	-1532.31555	-431.21289	975.12231	-1273.89197	-637.18567	1036.77905	-1452.3811	-642.55334	1036.71057	-1338.474	-426.72867	692.92694	-1604.90747	-390.39941	498.1618	-1579.43311	-410.99496	305.35599	-1582.96436	-361.17068	85.19699	-1567.41687	-380.64688	52.12957	-1510.48047	-207.40463	68.78979	-1597.57202	-539.64038	668.61572	-1232.94055	-570.60663	461.54611	-1284.36902	-637.6983	284.89011	-1285.9353	-679.81458	97.20466	-1335.05896	-719.39368	46.2089	-1393.06409	-532.91766	38.48702	-1316.87903	-476.89142	1806.49487	-1397.5896	NaN	NaN	NaN
